<?xml version="1.0" standalone="no"?>
<!DOCTYPE svg PUBLIC "-//W3C//DTD SVG 20010904//EN"
 "http://www.w3.org/TR/2001/REC-SVG-20010904/DTD/svg10.dtd">
<svg version="1.0" xmlns="http://www.w3.org/2000/svg"
 width="256.000000pt" height="256.000000pt" viewBox="0 0 256.000000 256.000000"
 preserveAspectRatio="xMidYMid meet">
<metadata>
Created by potrace 1.11, written by Peter Selinger 2001-2013
</metadata>
<g transform="translate(0.000000,256.000000) scale(0.100000,-0.100000)"
fill="#000000" stroke="none">
<path d="M1244 2318 c-22 -35 -44 -73 -51 -83 -7 -11 -46 -78 -87 -150 -42
-71 -83 -141 -91 -155 -52 -87 -165 -283 -165 -286 0 -2 -20 -37 -45 -77 -25
-41 -45 -79 -45 -85 0 -6 -4 -12 -8 -14 -9 -3 -46 -66 -98 -163 -15 -27 -29
-52 -33 -55 -3 -3 -16 -23 -28 -45 -11 -22 -30 -56 -42 -75 -11 -19 -28 -48
-37 -65 -9 -16 -66 -115 -127 -220 -61 -104 -119 -206 -130 -225 -10 -19 -71
-124 -134 -233 -63 -110 -111 -202 -108 -205 8 -9 2513 -9 2527 -1 6 4 -55
120 -145 275 -85 148 -169 294 -186 324 -17 30 -35 62 -41 70 -5 8 -34 60 -66
115 -32 55 -112 195 -179 310 -67 116 -133 230 -147 255 -14 25 -72 126 -130
225 -57 99 -116 200 -130 225 -69 122 -222 386 -228 393 -4 5 -25 -20 -46 -55z"/>
</g>
</svg>
