<?xml version="1.0" standalone="no"?>
<!DOCTYPE svg PUBLIC "-//W3C//DTD SVG 20010904//EN"
 "http://www.w3.org/TR/2001/REC-SVG-20010904/DTD/svg10.dtd">
<svg version="1.0" xmlns="http://www.w3.org/2000/svg"
 width="270.000000pt" height="270.000000pt" viewBox="0 0 270.000000 270.000000"
 preserveAspectRatio="xMidYMid meet">
<metadata>
Created by potrace 1.11, written by Peter Selinger 2001-2013
</metadata>
<g transform="translate(0.000000,270.000000) scale(0.100000,-0.100000)"
fill="#000000" stroke="none">
<path d="M1325 2070 c-10 -22 -22 -40 -27 -40 -4 0 -8 -5 -8 -11 0 -6 -23 -49
-51 -97 -53 -89 -60 -100 -124 -212 -21 -36 -45 -78 -55 -95 -10 -16 -43 -75
-75 -130 -31 -55 -65 -113 -75 -130 -108 -185 -180 -314 -180 -321 0 -7 1133
-11 1232 -5 12 1 -12 50 -97 199 -63 108 -118 202 -122 207 -4 6 -17 28 -28
50 -11 22 -24 43 -30 47 -7 5 -7 8 0 8 6 0 6 3 -1 8 -6 4 -37 54 -69 112 -33
58 -63 107 -67 108 -4 2 -8 8 -8 13 0 12 -167 299 -184 317 -10 10 -16 5 -31
-28z"/>
</g>
</svg>
